<svg width="512" height="512" viewBox="0 0 512 512" fill="none" xmlns="http://www.w3.org/2000/svg">
<g clip-path="url(#clip0_110_2)">
<path d="M174.621 347.591C120.157 294.101 98.8039 212.124 119.111 138.779C-0.848922 184.292 -38.9042 336.726 45.3104 433.521L21.6203 501.712L97.7909 475.252C181.625 521.287 292.873 491.221 342.053 410.081C279.76 414.53 218.693 391.88 174.621 347.591Z" fill="white"/>
<path d="M471.683 310.7C568.079 191.117 480.469 9.57208 326.76 10.2901C223.85 9.86008 140.921 95.7128 141.601 195.451C141.601 297.55 224.671 380.612 326.762 380.612C357.297 380.721 386.962 373.079 414.053 358.892L490.224 385.352L466.533 317.162L471.683 310.7ZM239.872 262.07C232.886 259.408 218.826 254.056 211.841 251.4C220.015 229.918 261.979 119.738 271.042 95.9388L297.962 95.9088L356.653 251.44C349.655 254.077 335.576 259.389 328.582 262.03C327.298 258.631 320.015 239.317 318.572 235.49H249.992C247.107 243.104 242.759 254.47 239.872 262.07ZM428.253 262.36H398.253V181.389H428.253V262.36ZM428.253 145.79H398.253V115.79H428.253V145.79Z" fill="white"/>
<path d="M284.442 145.049L261.422 205.49H307.252L284.442 145.049Z" fill="white"/>
</g>
<defs>
<clipPath id="clip0_110_2">
<rect width="512" height="512" fill="white"/>
</clipPath>
</defs>
</svg>
