<svg width="512" height="512" viewBox="0 0 512 512" fill="none" xmlns="http://www.w3.org/2000/svg">
<path d="M472 28C470.409 28 468.883 28.6321 467.757 29.7574C466.632 30.8826 466 32.4087 466 34V174C466 175.591 466.632 177.117 467.757 178.243C468.883 179.368 470.409 180 472 180C473.591 180 475.117 179.368 476.243 178.243C477.368 177.117 478 175.591 478 174V34C478 32.4087 477.368 30.8826 476.243 29.7574C475.117 28.6321 473.591 28 472 28Z" fill="#263238"/>
<path d="M34 34V174C34 175.591 34.6321 177.117 35.7574 178.243C36.8826 179.368 38.4087 180 40 180C41.5913 180 43.1174 179.368 44.2426 178.243C45.3679 177.117 46 175.591 46 174V34C46 32.4087 45.3679 30.8826 44.2426 29.7574C43.1174 28.6321 41.5913 28 40 28C38.4087 28 36.8826 28.6321 35.7574 29.7574C34.6321 30.8826 34 32.4087 34 34Z" fill="#263238"/>
<path d="M472 74C490.778 74 506 58.7777 506 40C506 21.2223 490.778 6 472 6C453.222 6 438 21.2223 438 40C438 58.7777 453.222 74 472 74Z" fill="#37474F"/>
<path d="M256 32C117.672 32 6 136.692 6 274.048V365.42C6 384.669 13.6468 403.13 27.2582 416.742C40.8696 430.353 59.3306 438 78.58 438H190.048C191.764 437.988 193.427 438.597 194.73 439.714C196.034 440.832 196.889 442.382 197.14 444.08C198.339 456.207 195.828 468.411 189.94 479.08C188.449 482.131 187.894 485.556 188.347 488.922C188.799 492.289 190.237 495.445 192.481 497.995C194.725 500.545 197.674 502.373 200.955 503.25C204.236 504.126 207.704 504.011 210.92 502.92C242.26 492.096 281.052 473.028 304.492 441.008C305.154 440.084 306.025 439.329 307.035 438.806C308.044 438.284 309.163 438.007 310.3 438H433.42C452.669 438 471.13 430.353 484.742 416.742C498.353 403.13 506 384.669 506 365.42V274.048C506.02 136.692 394.328 32 256 32Z" fill="#CFD8DC"/>
<path d="M93.9998 386C84.452 386 75.2953 382.207 68.544 375.456C61.7927 368.705 57.9998 359.548 57.9998 350V272C56.2078 164.912 150.216 82.26 256 82C362.108 81.736 455.828 164.552 454 272V350C454 359.548 450.207 368.705 443.456 375.456C436.704 382.207 427.548 386 418 386H93.9998Z" fill="#37474F"/>
<path d="M40 74C58.7777 74 74 58.7777 74 40C74 21.2223 58.7777 6 40 6C21.2223 6 6 21.2223 6 40C6 58.7777 21.2223 74 40 74Z" fill="#37474F"/>
<path d="M156 246C172.569 246 186 232.569 186 216C186 199.431 172.569 186 156 186C139.431 186 126 199.431 126 216C126 232.569 139.431 246 156 246Z" fill="#03A9F4"/>
<path d="M356 246C372.569 246 386 232.569 386 216C386 199.431 372.569 186 356 186C339.431 186 326 199.431 326 216C326 232.569 339.431 246 356 246Z" fill="#03A9F4"/>
<path d="M200.8 274C199.021 274 197.263 274.395 195.655 275.158C194.047 275.92 192.629 277.031 191.503 278.41C190.378 279.788 189.573 281.399 189.147 283.127C188.721 284.855 188.684 286.656 189.04 288.4C192.338 303.71 200.783 317.427 212.967 327.266C225.151 337.105 240.339 342.472 256 342.472C271.661 342.472 286.849 337.105 299.033 327.266C311.218 317.427 319.662 303.71 322.96 288.4C323.316 286.656 323.28 284.855 322.854 283.127C322.428 281.399 321.623 279.788 320.497 278.41C319.371 277.031 317.953 275.92 316.345 275.158C314.737 274.395 312.98 274 311.2 274H200.8Z" fill="white"/>
<path d="M306.28 320.48C299.87 327.417 292.094 332.953 283.441 336.739C274.788 340.526 265.445 342.48 256 342.48C246.555 342.48 237.212 340.526 228.558 336.739C219.905 332.953 212.129 327.417 205.72 320.48C212.262 313.77 220.081 308.438 228.716 304.797C237.352 301.156 246.628 299.28 256 299.28C265.371 299.28 274.648 301.156 283.283 304.797C291.918 308.438 299.737 313.77 306.28 320.48Z" fill="#03A9F4"/>
</svg>
