<svg width="22" height="22" viewBox="0 0 22 22" fill="none" xmlns="http://www.w3.org/2000/svg">
<g clip-path="url(#clip0_23_120)">
<path d="M21.3317 8.63417C19.91 6.31867 16.676 2.43384 11 2.43384C5.32399 2.43384 2.08999 6.31867 0.668236 8.63417C0.22872 9.34505 -0.00408936 10.1643 -0.00408936 11.0001C-0.00408936 11.8359 0.22872 12.6551 0.668236 13.366C2.08999 15.6815 5.32399 19.5663 11 19.5663C16.676 19.5663 19.91 15.6815 21.3317 13.366C21.7713 12.6551 22.0041 11.8359 22.0041 11.0001C22.0041 10.1643 21.7713 9.34505 21.3317 8.63417ZM19.7688 12.4063C18.5478 14.3918 15.7841 17.733 11 17.733C6.2159 17.733 3.45215 14.3918 2.23115 12.4063C1.97003 11.9837 1.83172 11.4968 1.83172 11.0001C1.83172 10.5034 1.97003 10.0165 2.23115 9.59392C3.45215 7.60842 6.2159 4.26717 11 4.26717C15.7841 4.26717 18.5478 7.60475 19.7688 9.59392C20.0299 10.0165 20.1683 10.5034 20.1683 11.0001C20.1683 11.4968 20.0299 11.9837 19.7688 12.4063Z" fill="#A9B2BA"/>
<path d="M11 6.41675C10.0935 6.41675 9.20738 6.68556 8.45366 7.18918C7.69993 7.6928 7.11248 8.40862 6.76557 9.24612C6.41867 10.0836 6.32791 11.0052 6.50476 11.8942C6.68161 12.7833 7.11813 13.6 7.75912 14.241C8.40011 14.882 9.21678 15.3185 10.1059 15.4953C10.9949 15.6722 11.9165 15.5814 12.754 15.2345C13.5915 14.8876 14.3073 14.3002 14.8109 13.5464C15.3145 12.7927 15.5834 11.9066 15.5834 11.0001C15.5819 9.78495 15.0985 8.62001 14.2393 7.76078C13.3801 6.90156 12.2152 6.4182 11 6.41675ZM11 13.7501C10.4561 13.7501 9.92444 13.5888 9.4722 13.2866C9.01997 12.9844 8.66749 12.555 8.45935 12.0525C8.25121 11.55 8.19675 10.997 8.30286 10.4636C8.40897 9.93014 8.67088 9.44013 9.05548 9.05554C9.44007 8.67094 9.93008 8.40903 10.4635 8.30292C10.997 8.19681 11.5499 8.25127 12.0524 8.45941C12.5549 8.66755 12.9844 9.02003 13.2866 9.47226C13.5887 9.9245 13.75 10.4562 13.75 11.0001C13.75 11.7294 13.4603 12.4289 12.9446 12.9446C12.4288 13.4604 11.7294 13.7501 11 13.7501Z" fill="#A9B2BA"/>
</g>
<defs>
<clipPath id="clip0_23_120">
<rect width="22" height="22" fill="white"/>
</clipPath>
</defs>
</svg>
