<svg width="22" height="22" viewBox="0 0 22 22" fill="none" xmlns="http://www.w3.org/2000/svg">
<g clip-path="url(#clip0_23_126)">
<path d="M21.3317 8.63405C19.91 6.31855 16.676 2.43372 11 2.43372C5.32399 2.43372 2.08999 6.31855 0.668236 8.63405C0.22872 9.34493 -0.00408936 10.1642 -0.00408936 11C-0.00408936 11.8357 0.22872 12.655 0.668236 13.3659C2.08999 15.6814 5.32399 19.5662 11 19.5662C16.676 19.5662 19.91 15.6814 21.3317 13.3659C21.7713 12.655 22.0041 11.8357 22.0041 11C22.0041 10.1642 21.7713 9.34493 21.3317 8.63405ZM19.7688 12.4061C18.5478 14.3916 15.7841 17.7329 11 17.7329C6.2159 17.7329 3.45215 14.3916 2.23115 12.4061C1.97003 11.9836 1.83172 11.4967 1.83172 11C1.83172 10.5032 1.97003 10.0163 2.23115 9.5938C3.45215 7.6083 6.2159 4.26705 11 4.26705C15.7841 4.26705 18.5478 7.60463 19.7688 9.5938C20.0299 10.0163 20.1683 10.5032 20.1683 11C20.1683 11.4967 20.0299 11.9836 19.7688 12.4061Z" fill="#A9B2BA"/>
<path d="M11 6.41663C10.0935 6.41663 9.20738 6.68543 8.45366 7.18906C7.69993 7.69268 7.11248 8.4085 6.76557 9.24599C6.41867 10.0835 6.32791 11.005 6.50476 11.8941C6.68161 12.7832 7.11813 13.5999 7.75912 14.2409C8.40011 14.8819 9.21678 15.3184 10.1059 15.4952C10.9949 15.6721 11.9165 15.5813 12.754 15.2344C13.5915 14.8875 14.3073 14.3 14.8109 13.5463C15.3145 12.7926 15.5834 11.9065 15.5834 11C15.5819 9.78483 15.0985 8.61989 14.2393 7.76066C13.3801 6.90143 12.2152 6.41808 11 6.41663ZM11 13.75C10.4561 13.75 9.92444 13.5887 9.4722 13.2865C9.01997 12.9843 8.66749 12.5548 8.45935 12.0523C8.25121 11.5498 8.19675 10.9969 8.30286 10.4635C8.40897 9.93001 8.67088 9.44001 9.05548 9.05542C9.44007 8.67082 9.93008 8.40891 10.4635 8.3028C10.997 8.19669 11.5499 8.25115 12.0524 8.45929C12.5549 8.66743 12.9844 9.01991 13.2866 9.47214C13.5887 9.92438 13.75 10.4561 13.75 11C13.75 11.7293 13.4603 12.4288 12.9446 12.9445C12.4288 13.4602 11.7294 13.75 11 13.75Z" fill="#A9B2BA"/>
<path d="M20.7071 2.70715L2 19" stroke="#A9B2BA" stroke-width="2" stroke-linecap="round"/>
</g>
<defs>
<clipPath id="clip0_23_126">
<rect width="22" height="22" fill="white"/>
</clipPath>
</defs>
</svg>
