<svg width="36" height="36" viewBox="0 0 36 36" fill="none" xmlns="http://www.w3.org/2000/svg">
<path d="M33.2306 20.1787C32.8367 19.1818 32.3936 18.1849 31.9075 17.2802C30.2397 14.1787 30.129 11.6186 30.1597 10.634C30.1721 10.2524 29.9813 9.88935 29.6428 9.68627C29.2982 9.47704 28.8674 9.52627 28.529 9.74781C26.6212 11.0032 25.6058 13.3725 26.1043 15.711C26.5351 17.711 27.1812 19.4957 27.1812 19.4957L25.0335 16.3941L18.8673 6.56007C18.3626 5.72313 17.3042 5.44005 16.4857 5.92621C15.6611 6.41237 15.3718 7.49547 15.8334 8.36933L20.9781 18.0433L13.0395 10.074C12.3441 9.37857 11.2425 9.37857 10.5656 10.074L10.4917 10.154C9.81481 10.8555 9.81481 11.9878 10.4917 12.7079L18.1349 20.8249L9.64865 15.1694C8.83018 14.6217 7.74093 14.8617 7.21784 15.6987L7.20554 15.7171C6.70707 16.5233 6.90399 17.6002 7.66093 18.1726L16.1041 24.548L9.42096 21.428C8.5594 21.028 7.55631 21.4649 7.24861 22.3819C6.99015 23.1573 7.32246 24.0188 8.03016 24.4065L14.7749 28.302C15.3287 28.622 15.8395 29.0158 16.2949 29.4712L17.9749 31.1574C21.8519 35.0528 28.2213 34.9667 31.7228 30.7143C31.8644 30.542 32.0059 30.3574 32.1413 30.1728C34.2029 27.305 34.5414 23.4834 33.2429 20.1787H33.2306Z" fill="#FEDE67"/>
<path d="M21.6919 5.69234C23.052 5.69234 24.1535 6.79389 24.1535 8.15391C24.1535 8.49238 24.4304 8.76931 24.7689 8.76931C25.1074 8.76931 25.3843 8.49238 25.3843 8.15391C25.3843 6.11696 23.7289 4.46155 21.6919 4.46155C21.3535 4.46155 21.0765 4.73848 21.0765 5.07694C21.0765 5.41541 21.3535 5.69234 21.6919 5.69234Z" fill="#D7D5FD"/>
<path d="M22.3073 3.23079C24.6827 3.23079 26.6151 5.16313 26.6151 7.53855C26.6151 7.87702 26.892 8.15395 27.2305 8.15395C27.5689 8.15395 27.8459 7.87702 27.8459 7.53855C27.8459 4.48619 25.3597 2 22.3073 2C21.9689 2 21.6919 2.27693 21.6919 2.61539C21.6919 2.95386 21.9689 3.23079 22.3073 3.23079Z" fill="#D7D5FD"/>
<path d="M8.15324 27.8466C6.79322 27.8466 5.69167 26.7451 5.69167 25.385C5.69167 25.0466 5.41474 24.7697 5.07627 24.7697C4.7378 24.7697 4.46088 25.0466 4.46088 25.385C4.46088 27.422 6.11629 29.0774 8.15324 29.0774C8.49171 29.0774 8.76864 28.8005 8.76864 28.462C8.76864 28.1236 8.49171 27.8466 8.15324 27.8466Z" fill="#D7D5FD"/>
<path d="M7.53785 30.3082C5.16243 30.3082 3.23009 28.3758 3.23009 26.0004C3.23009 25.6619 2.95316 25.385 2.61469 25.385C2.27623 25.385 1.9993 25.6619 1.9993 26.0004C1.9993 29.0528 4.48549 31.539 7.53785 31.539C7.87632 31.539 8.15324 31.262 8.15324 30.9236C8.15324 30.5851 7.87632 30.3082 7.53785 30.3082Z" fill="#D7D5FD"/>
</svg>
