<svg width="363" height="429" viewBox="0 0 363 429" fill="none" xmlns="http://www.w3.org/2000/svg">
<path d="M309.709 53.1379C238.859 -17.7125 123.988 -17.7125 53.1376 53.1379C-17.7125 123.988 -17.7125 238.859 53.1376 309.709C88.2398 344.811 134.148 362.496 180.154 362.816V428.819L299.453 319.138C302.952 316.133 306.393 313.025 309.708 309.709C380.559 238.859 380.559 123.988 309.709 53.1379Z" fill="#0F56A6"/>
<path d="M274 90.6748C222.677 39.3511 139.465 39.3511 88.1412 90.6748C36.8175 141.998 36.8175 225.21 88.1412 276.534C113.569 301.962 146.825 314.751 180.152 314.983V362.817L274 276.534C325.324 225.21 325.324 141.998 274 90.6748Z" fill="white"/>
<path opacity="0.5" d="M124.495 207.499C135.182 207.499 143.846 198.835 143.846 188.148C143.846 177.46 135.182 168.797 124.495 168.797C113.807 168.797 105.144 177.46 105.144 188.148C105.144 198.835 113.807 207.499 124.495 207.499Z" fill="#0F56A6"/>
<path opacity="0.7" d="M181.071 207.499C191.758 207.499 200.422 198.835 200.422 188.148C200.422 177.46 191.758 168.797 181.071 168.797C170.384 168.797 161.72 177.46 161.72 188.148C161.72 198.835 170.384 207.499 181.071 207.499Z" fill="#0F56A6"/>
<path opacity="0.9" d="M237.647 207.499C248.335 207.499 256.998 198.835 256.998 188.148C256.998 177.46 248.335 168.797 237.647 168.797C226.96 168.797 218.296 177.46 218.296 188.148C218.296 198.835 226.96 207.499 237.647 207.499Z" fill="#0F56A6"/>
</svg>
